<svg width="512" height="512" viewBox="0 0 100 100" xmlns="http://www.w3.org/2000/svg">
  <!-- Dark Background -->
  <rect width="100" height="100" rx="20" fill="#111827"/>
  
  <!-- Define the gradient for the icon -->
  <defs>
    <linearGradient id="logoGradient" x1="0%" y1="0%" x2="100%" y2="100%">
      <stop offset="0%" style="stop-color:#FFB74D;stop-opacity:1" />
      <stop offset="100%" style="stop-color:#FB8C00;stop-opacity:1" />
    </linearGradient>
  </defs>
  
  <!-- Centered Icon Path -->
  <g transform="translate(25, 25) scale(1)">
    <path d="M20 0 L0 0 L0 40 L20 40 L20 25 C25 25 25 20 20 20 L0 20 M0 0 L20 0 L20 15 C25 15 25 20 20 20" 
          fill="none" 
          stroke="url(#logoGradient)" 
          stroke-width="7" 
          stroke-linecap="round" 
          stroke-linejoin="round"/>
    <path d="M30 0 L50 0 L50 40 L30 40 L30 25 C25 25 25 20 30 20 L50 20 M50 0 L30 0 L30 15 C25 15 25 20 30 20" 
          fill="none" 
          stroke="url(#logoGradient)" 
          stroke-width="7" 
          stroke-linecap="round" 
          stroke-linejoin="round"/>
  </g>
</svg>